<?xml version="1.0" encoding="UTF-8"?>
<svg width="52px" height="52px" viewBox="0 0 52 52" version="1.1" xmlns="http://www.w3.org/2000/svg" xmlns:xlink="http://www.w3.org/1999/xlink">
    <!-- Generator: Sketch 48.2 (47327) - http://www.bohemiancoding.com/sketch -->
    <title>Instagram</title>
    <desc>Created with Sketch.</desc>
    <defs></defs>
    <g id="Desktop" stroke="none" stroke-width="1" fill="none" fill-rule="evenodd" transform="translate(-923.000000, -2330.000000)">
        <g id="Instagram" transform="translate(923.000000, 2330.000000)" fill="#4A4A4A" fill-rule="nonzero">
            <g id="Layer-1">
                <path d="M38.9926533,0.0049498998 L13.0074509,0.0049498998 C5.84833267,0.0049498998 0.0238116232,5.80987976 0.0238116232,12.9449259 L0.0238116232,39.0548657 C0.0238116232,46.1894429 5.84833267,51.994998 13.0074509,51.994998 L38.9926533,51.994998 C46.1517715,51.994998 51.9761363,46.1893908 51.9761363,39.0548657 L51.9761363,12.9448737 C51.9761363,5.80987976 46.1517715,0.00500200401 38.9926533,0.00500200401 L38.9926533,0.0049498998 Z M47.1675431,39.0547615 C47.1675431,43.5468737 43.5004489,47.2021924 38.9927054,47.2021924 L13.007503,47.2021924 C8.49975952,47.2021924 4.83261323,43.5468737 4.83261323,39.0547615 L4.83261323,22.1913387 L15.1047495,22.1913387 C14.3548136,23.7775471 13.9330301,25.5470581 13.9330301,27.4131182 C13.9330301,34.19099 19.4654549,39.7043447 26.2658878,39.7043447 C33.0661643,39.7043447 38.5986934,34.19099 38.5986934,27.4131182 C38.5986934,25.5470581 38.1769619,23.777495 37.4268697,22.1913387 L47.1675431,22.1913387 L47.167491,39.0547615 L47.1675431,39.0547615 Z M21.1462325,27.4132224 C21.1462325,24.6001162 23.4428297,22.311022 26.2659399,22.311022 C29.0891543,22.311022 31.3855952,24.6001683 31.3855952,27.4132224 C31.3855952,30.2269018 29.0891543,32.5155792 26.2659399,32.5155792 C23.4428818,32.5155271 21.1462325,30.2269018 21.1462325,27.4132224 Z M47.1675952,17.3988457 L33.4029659,17.3988457 C31.386481,15.9676473 28.9244008,15.1221523 26.2659399,15.1221523 C23.607479,15.1221523 21.1450862,15.9676473 19.1290701,17.3988457 L4.83261323,17.3988457 L4.83261323,12.9449259 C4.83261323,8.45234469 8.49975952,4.79754709 13.007503,4.79754709 L38.9927054,4.79754709 C43.5004489,4.79754709 47.1675431,8.45234469 47.1675431,12.9449259 L47.1675952,17.3988457 Z M41.9568096,7.70418036 L37.4992946,7.70418036 C36.7056433,7.70418036 36.0566854,8.35121042 36.0566854,9.14194389 L36.0566854,13.5846613 C36.0566854,14.3753427 36.7055912,15.0224248 37.4992946,15.0224248 L41.9568096,15.0224248 C42.7504088,15.0224248 43.3994188,14.3753427 43.3994188,13.5846613 L43.3994188,9.14194389 C43.3994188,8.35121042 42.7504609,7.70418036 41.9568096,7.70418036 Z" id="Shape"></path>
            </g>
        </g>
    </g>
</svg>