<?xml version="1.0" encoding="UTF-8"?>
<svg width="55px" height="55px" viewBox="0 0 55 55" version="1.1" xmlns="http://www.w3.org/2000/svg" xmlns:xlink="http://www.w3.org/1999/xlink">
    <!-- Generator: Sketch 48.2 (47327) - http://www.bohemiancoding.com/sketch -->
    <title>Pinterest</title>
    <desc>Created with Sketch.</desc>
    <defs></defs>
    <g id="Desktop" stroke="none" stroke-width="1" fill="none" fill-rule="evenodd" transform="translate(-1074.000000, -2327.000000)">
        <g id="Pinterest" transform="translate(1074.000000, 2327.000000)" fill="#4A4A4A" fill-rule="nonzero">
            <g id="Pinterest-black">
                <g id="Icons">
                    <g id="Black">
                        <path d="M27.5011458,0 C12.3154167,0 0,12.3119792 0,27.5011458 C0,38.7589583 6.771875,48.4355208 16.4644792,52.6877083 C16.3865625,50.7695833 16.4507292,48.4607292 16.94,46.371875 C17.469375,44.1397917 20.4771875,31.3889583 20.4771875,31.3889583 C20.4771875,31.3889583 19.600625,29.6323958 19.600625,27.0359375 C19.600625,22.9613542 21.965625,19.9180208 24.9058333,19.9180208 C27.40375,19.9180208 28.61375,21.7971875 28.61375,24.0476042 C28.61375,26.5604167 27.0095833,30.3221875 26.1845833,33.804375 C25.4970833,36.7251042 27.6466667,39.1015625 30.525,39.1015625 C35.7351042,39.1015625 39.2447917,32.4098958 39.2447917,24.4807292 C39.2447917,18.4559375 35.1851042,13.9447917 27.8025,13.9447917 C19.4619792,13.9447917 14.2644792,20.1632292 14.2644792,27.1104167 C14.2644792,29.5097917 14.9703125,31.1976042 16.0760417,32.505 C16.5870833,33.1088542 16.6546875,33.3483333 16.4702083,34.0404167 C16.3407292,34.5422917 16.0370833,35.7648958 15.9110417,36.2461458 C15.7277083,36.9416667 15.1639583,37.19375 14.5360417,36.9347917 C10.6917708,35.3661458 8.903125,31.1597917 8.903125,26.4275 C8.903125,18.6175 15.4916667,9.24572917 28.5564583,9.24572917 C39.056875,9.24572917 45.9673958,16.8494792 45.9673958,25.0009375 C45.9673958,35.7901042 39.97125,43.8498958 31.1265625,43.8498958 C28.1611458,43.8498958 25.3676042,42.2457292 24.4096875,40.4238542 C24.4096875,40.4238542 22.8123958,46.7603125 22.4755208,47.9817708 C21.8934375,50.1015625 20.7521875,52.2213542 19.7083333,53.8713542 C22.1821875,54.6023958 24.7958333,55 27.5011458,55 C42.6880208,55 55,42.6880208 55,27.5011458 C55,12.3119792 42.6880208,0 27.5011458,0" id="Pinterest"></path>
                    </g>
                </g>
            </g>
        </g>
    </g>
</svg>