<?xml version="1.0" encoding="UTF-8"?>
<svg width="52px" height="52px" viewBox="0 0 52 52" version="1.1" xmlns="http://www.w3.org/2000/svg" xmlns:xlink="http://www.w3.org/1999/xlink">
    <!-- Generator: Sketch 48.2 (47327) - http://www.bohemiancoding.com/sketch -->
    <title>Twitter</title>
    <desc>Created with Sketch.</desc>
    <defs></defs>
    <g id="Desktop" stroke="none" stroke-width="1" fill="none" fill-rule="evenodd" transform="translate(-844.000000, -2330.000000)">
        <g id="Twitter" transform="translate(844.000000, 2330.000000)" fill="#4A4A4A" fill-rule="nonzero">
            <g id="twitter_1">
                <g id="Layer_2">
                    <path d="M48.75,0 L3.25,0 C1.45507456,-1.09907485e-16 2.19814969e-16,1.45507456 0,3.25 L0,48.75 C2.19814969e-16,50.5449254 1.45507456,52 3.25,52 L48.75,52 C50.5449254,52 52,50.5449254 52,48.75 L52,3.25 C52,1.45507456 50.5449254,1.09907485e-16 48.75,0 Z M26,32.5 L32.5,32.5 C34.2949254,32.5 35.75,33.9550746 35.75,35.75 C35.75,37.5449254 34.2949254,39 32.5,39 L26,39 C19.8969063,39 16.25,34.0425312 16.25,29.25 L16.25,16.25 C16.25,14.4550746 17.7050746,13 19.5,13 C21.2949254,13 22.75,14.4550746 22.75,16.25 L22.75,19.5 L32.5,19.5 C34.2949254,19.5 35.75,20.9550746 35.75,22.75 C35.75,24.5449254 34.2949254,26 32.5,26 L22.75,26 L22.75,29.25 C22.7244505,30.1195346 23.0586489,30.9611128 23.6737681,31.5762319 C24.2888872,32.1913511 25.1304654,32.5255495 26,32.5 Z" id="Icons"></path>
                </g>
            </g>
        </g>
    </g>
</svg>